<?xml version="1.0" standalone="no"?><!DOCTYPE svg PUBLIC "-//W3C//DTD SVG 1.1//EN" "http://www.w3.org/Graphics/SVG/1.1/DTD/svg11.dtd"><svg t="1551427780274" class="icon" style="" viewBox="0 0 1024 1024" version="1.1" xmlns="http://www.w3.org/2000/svg" p-id="1637" xmlns:xlink="http://www.w3.org/1999/xlink" width="48" height="48"><defs><style type="text/css"></style></defs><path d="M512 0a512 512 0 1 0 512 512 512 512 0 0 0-512-512z m258.048 544.256a32.256 32.256 0 0 1-32.256 32.256h-161.28v161.28a32.256 32.256 0 0 1-32.256 32.192H479.744a32.256 32.256 0 0 1-32.256-32.256v-161.28h-161.28a32.256 32.256 0 0 1-32.256-32.192V479.744c0-17.856 14.464-32.256 32.256-32.256h161.28v-161.28c0-17.792 14.464-32.256 32.256-32.256h64.512c17.792 0 32.256 14.464 32.256 32.256v161.28h161.28c17.792 0 32.256 14.464 32.256 32.256v64.512z" p-id="1638"></path></svg>