<?xml version="1.0" standalone="no"?><!DOCTYPE svg PUBLIC "-//W3C//DTD SVG 1.1//EN" "http://www.w3.org/Graphics/SVG/1.1/DTD/svg11.dtd"><svg t="1551427405982" class="icon" style="" viewBox="0 0 1024 1024" version="1.1" xmlns="http://www.w3.org/2000/svg" p-id="665" xmlns:xlink="http://www.w3.org/1999/xlink" width="48" height="48"><defs><style type="text/css"></style></defs><path d="M512 38.4C250.368 38.4 38.4 250.368 38.4 512s211.968 473.6 473.6 473.6 473.6-211.968 473.6-473.6S773.632 38.4 512 38.4zM255.488 651.264c-3.072 16.896-3.584 31.744-3.072 43.52-2.56-0.512-5.12-1.024-7.68-1.024-9.216-1.536-16.896-2.56-23.552-4.096-6.656-1.536-10.752-3.072-11.776-4.096-3.072-2.56-5.12-9.216-6.656-20.48-1.536-11.264-1.024-25.6 1.536-43.52 1.536-10.24 6.144-18.432 12.288-23.552 6.656-5.12 14.336-9.216 23.552-12.288 9.216-3.072 18.944-6.144 28.16-8.704s18.432-6.144 25.6-10.752c6.144-3.584 10.752-7.168 13.824-10.24 3.072-3.584 5.632-6.656 6.656-9.728 1.536-3.584 2.048-6.656 2.048-10.752s-0.512-7.68-0.512-11.776c-0.512-6.144-3.072-11.264-6.656-14.848-4.096-4.096-8.192-7.168-12.288-11.264-2.56-1.536-4.608-4.608-6.656-8.192-1.536-3.584-3.584-7.168-4.608-10.752-1.536-4.096-3.072-8.704-3.584-13.312-2.048-0.512-4.096-1.536-6.144-3.072-1.536-1.024-3.584-3.072-5.12-5.632s-3.584-6.144-5.12-11.264c-1.536-4.608-2.048-8.704-1.536-12.8 0.512-4.096 1.536-7.168 2.56-10.24 1.024-3.584 3.072-6.144 5.12-8.704 0-10.752 1.024-20.992 2.048-31.232 1.536-8.704 3.584-18.432 6.144-28.16s6.656-18.944 12.8-27.136c5.632-7.68 11.776-13.824 17.92-18.944 6.656-4.608 13.312-8.704 19.968-11.264 6.656-2.56 13.824-4.608 20.48-5.632 6.656-1.024 13.312-1.536 19.456-1.536-53.76 87.04-20.992 179.2-18.944 183.808 1.536 4.096 9.216 29.696 32.768 50.688 17.408 15.872 13.824 14.336 12.8 27.648-1.024 13.312-25.6 22.528-34.304 27.648-10.752 5.632-53.248 18.432-75.776 27.648-23.04 8.704-29.696 31.232-31.744 44.032z m467.968 68.608c-2.048 13.824-4.608 22.016-8.192 25.088-2.048 1.536-7.168 3.072-14.848 5.12-8.192 2.048-17.92 3.584-29.696 5.632s-24.576 3.584-38.4 4.608c-2.56 0.512-5.632 0.512-8.192 1.024l-18.944 2.56c-10.752 1.024-24.064 2.048-39.424 3.072-15.872 1.024-33.28 1.536-53.248 1.536h-1.024c-19.968 0-37.888-0.512-53.248-1.536-15.872-1.024-28.672-2.048-39.424-3.072l-18.944-2.56c-3.072-0.512-5.632-0.512-8.192-1.024-13.824-1.536-26.624-3.072-38.4-4.608s-21.504-3.584-29.696-5.632c-8.192-2.048-13.312-3.584-14.848-5.12-3.584-3.072-6.144-11.264-8.192-25.088s-1.536-31.744 1.536-53.76c2.048-12.288 7.168-22.016 15.872-28.672 8.704-6.656 18.432-11.776 29.696-15.872 11.264-3.584 23.552-7.168 35.84-10.752 12.288-3.072 23.552-7.68 32.768-13.312 7.168-4.608 13.312-8.704 16.896-12.8 4.096-4.096 6.656-8.192 8.192-12.288 1.536-4.096 2.048-8.704 2.048-13.312s-0.512-9.216-0.512-14.848c-1.024-8.192-3.584-14.336-8.704-18.944-5.12-4.608-10.24-9.216-15.872-13.824-3.072-2.048-6.144-5.632-8.192-10.24-2.048-4.608-4.096-8.704-5.632-12.8l-0.512-0.512-1.024-2.56-3.072-10.752c-0.512-1.024-0.512-2.048-1.024-3.072-0.512 0-1.024-0.512-1.024-0.512-2.048-1.024-4.608-1.536-6.656-3.072-1.024-1.024-1.536-1.536-2.56-2.048-3.072-2.048-5.12-5.632-7.68-9.728-2.048-3.584-3.584-8.192-4.096-14.336-0.512-1.536-0.512-3.584-0.512-5.12-0.512-4.608-0.512-8.704 0.512-11.776 1.024-3.584 2.048-6.656 3.584-9.216 1.536-2.048 3.072-4.096 4.608-5.632 0.512-0.512 1.024-1.024 1.024-1.536-0.512-13.824 0.512-27.136 2.048-40.448 1.024-6.144 2.56-12.8 4.096-19.456 1.024-4.608 2.048-9.216 3.584-13.824 3.072-11.776 8.704-22.528 15.872-32.256 2.048-2.56 3.584-5.632 6.144-7.68 3.072-3.584 6.656-7.168 10.752-10.752 2.048-2.048 4.608-3.584 6.656-5.632 8.192-6.144 16.384-10.752 25.088-14.336s17.408-5.632 25.6-7.168l10.752-1.536c4.608-0.512 9.216-0.512 13.824-0.512h1.024c4.608 0 9.216 0.512 13.824 0.512 3.584 0.512 6.656 1.024 10.752 1.536 8.704 1.536 17.408 3.584 25.6 7.168 8.704 3.584 16.896 8.192 25.088 14.336 2.048 1.536 4.608 3.584 6.656 5.632 4.096 3.584 8.192 7.168 10.752 10.752l6.144 7.68c7.168 9.728 12.288 20.48 15.872 32.256 1.024 4.608 2.048 9.216 3.584 13.824 1.536 6.656 3.072 13.312 4.096 19.456 2.048 13.312 3.072 27.136 2.048 40.448 0.512 0.512 1.024 1.024 1.024 1.536 2.048 1.536 3.584 3.584 4.608 5.632 1.536 2.048 3.072 5.632 3.584 9.216 0.512 3.072 1.024 7.168 0.512 11.776 0 1.536-0.512 3.584-0.512 5.12-1.024 6.144-2.048 10.752-4.096 14.336-2.048 4.096-4.608 7.168-7.68 9.728-1.024 1.024-1.536 1.536-2.56 2.048-2.048 1.536-4.096 2.048-6.656 3.072-0.512 0-1.024 0.512-1.024 0.512-0.512 1.024-0.512 2.048-1.024 3.072-1.024 4.096-2.048 7.168-3.072 10.752l-1.024 2.56c0 0.512-0.512 0.512-0.512 0.512-1.536 4.096-3.584 8.192-5.632 12.288-2.048 4.608-5.12 8.192-8.192 10.24-5.632 4.096-10.752 8.704-15.872 13.824-4.608 4.608-7.68 10.752-8.704 18.944-0.512 5.632-0.512 10.24-0.512 14.848s1.024 8.704 2.048 13.312c1.536 4.096 4.096 8.192 8.192 12.288s9.728 8.192 16.896 12.8c9.216 5.632 20.48 10.24 32.768 13.312 12.288 3.072 24.576 6.656 35.84 10.752 11.264 3.584 21.504 9.216 29.696 15.872 8.704 6.656 13.824 16.384 15.872 29.184 5.12 22.016 5.632 40.448 3.584 53.76z m97.792-55.808c-1.536 11.264-3.584 17.92-6.656 20.48-1.536 1.536-5.632 3.072-11.776 4.096-6.144 1.536-14.336 3.072-23.552 4.096-2.56 0.512-5.12 1.024-7.68 1.024 0.512-11.776-0.512-26.624-3.072-43.52-2.048-12.288-9.216-34.816-31.744-44.032-22.016-9.216-65.024-22.016-75.776-27.648-8.192-4.608-33.28-14.336-34.304-27.136-1.024-13.312-4.608-11.776 12.8-27.648 23.04-20.992 30.72-46.592 32.768-50.688 2.048-4.608 34.816-96.768-18.944-183.808 6.144 0 12.288 0.512 19.456 1.536 6.656 1.024 13.824 3.072 20.48 5.632 6.656 2.56 13.824 6.656 19.968 11.264s12.288 11.264 17.92 18.944c6.144 8.192 10.24 16.896 12.8 27.136 3.072 9.728 4.608 19.456 6.144 28.16 1.536 10.752 2.048 20.992 2.048 31.232 2.048 2.56 4.096 5.632 5.12 8.704 1.024 3.072 2.048 6.144 2.56 10.24 0.512 4.096-0.512 8.192-1.536 12.8-1.536 4.608-3.584 8.704-5.12 11.264-1.536 2.048-3.584 4.096-5.12 5.632-1.536 1.536-3.584 2.048-6.144 3.072-1.024 4.608-2.048 9.216-3.584 13.312-1.024 3.584-2.56 6.656-4.608 10.752s-4.096 6.656-6.656 8.192c-4.096 3.584-8.704 7.168-12.288 11.264-4.096 3.584-6.144 8.704-6.656 14.848-0.512 4.096-0.512 8.192-0.512 11.776 0 3.584 1.024 7.168 2.048 10.752s3.584 6.656 6.656 9.728c3.072 3.072 7.68 6.656 13.824 10.24 7.168 4.608 15.872 8.192 25.6 10.752s19.456 5.632 28.16 8.704c9.216 3.072 16.896 7.168 23.552 12.288 6.656 5.632 11.264 13.312 12.288 23.552 3.072 17.92 3.072 32.256 1.536 43.008z" p-id="666"></path></svg>