<?xml version="1.0" standalone="no"?><!DOCTYPE svg PUBLIC "-//W3C//DTD SVG 1.1//EN" "http://www.w3.org/Graphics/SVG/1.1/DTD/svg11.dtd"><svg t="1551431588297" class="icon" style="" viewBox="0 0 1024 1024" version="1.1" xmlns="http://www.w3.org/2000/svg" p-id="6689" xmlns:xlink="http://www.w3.org/1999/xlink" width="48" height="48"><defs><style type="text/css"></style></defs><path d="M511.9 100C284.3 100 99.2 285.1 99.2 512.7c0 227.5 185.1 412.7 412.7 412.7 227.5 0 412.7-185.2 412.7-412.7C924.5 285.1 739.4 100 511.9 100z m-1.8 533.8v-41.3h82.5V510H634v82.5h82.5v41.3H634v82.5h-41.3v-82.5h-82.6z m145-176.9c-9.6-1.2-19.3-2.4-29.4-2.4-42.3 0-81.5 10.6-113.9 28.5-4.6 0.1-9 0.6-13.6 0.6-120.6 0-218.5-39.1-218.5-87.3v-29.2c0-48.2 97.8-87.3 218.5-87.3s218.5 39.1 218.5 87.3v29.2c0 23.6-23.6 44.9-61.6 60.6z m-181.9 55c-16.9 16-29.7 34.5-37.7 55-89.9-10.8-155.8-43.8-155.8-83.3v-49.1c0 44.7 84.8 73.6 193.5 77.4z m-45.5 84.2c-0.9 6.2-2.4 12.2-2.4 18.5 0 13.6 2.8 26.6 6.7 39.2-88.2-11.3-152.4-43.9-152.4-82.9v-49.1c0.1 38.3 62.2 64.8 148.1 74.3z m-148 13.1c0 41.1 71.3 68.8 167 76.1 14.8 23.9 36.5 44.6 63.5 59.9-4.1 0.1-8 0.5-12.1 0.5-120.7 0-218.5-39.1-218.5-87.3v-49.2h0.1z" p-id="6690"></path></svg>