<?xml version="1.0" standalone="no"?><!DOCTYPE svg PUBLIC "-//W3C//DTD SVG 1.1//EN" "http://www.w3.org/Graphics/SVG/1.1/DTD/svg11.dtd"><svg t="1551431615359" class="icon" style="" viewBox="0 0 1024 1024" version="1.1" xmlns="http://www.w3.org/2000/svg" p-id="8150" xmlns:xlink="http://www.w3.org/1999/xlink" width="48" height="48"><defs><style type="text/css"></style></defs><path d="M512 66.862C266.553 66.862 66.86 266.555 66.86 512c0 245.445 199.693 445.138 445.138 445.138 245.446 0 445.139-199.694 445.139-445.138 0-245.446-199.693-445.138-445.139-445.138zM261.608 427.884c0 48.144 85.31 79.008 194.748 83.246-16.953 17.226-29.885 37.058-37.927 59.065-90.473-11.627-156.82-47.11-156.82-89.495v-52.816z m0 93.897c0 41.188 62.543 69.716 148.996 79.823-0.87 6.63-2.337 13.15-2.337 19.942 0 14.616 2.771 28.582 6.793 42.111-88.734-12.063-153.451-47.165-153.451-89.06V521.78zM481.57 762.39c-89.06 0-165.84-22.66-200.399-55.153-12.606-11.79-19.561-24.887-19.561-38.743v-52.817c0 44.232 71.78 73.955 168.23 81.834a181.785 181.785 0 0 0 6.086 9.727c14.508 21.626 34.07 40.318 57.816 54.664-4.075 0.052-7.988 0.488-12.172 0.488z m0-281.69c-121.446 0-219.96-42.003-219.96-93.896v-31.3c0-51.838 98.514-93.896 219.96-93.896 121.5 0 219.961 42.058 219.961 93.897v31.299c0 25.321-23.746 48.252-61.945 65.097-9.781-1.195-19.507-2.5-29.668-2.5-42.656 0-82.051 11.411-114.6 30.647-4.673 0.217-9.074 0.652-13.748 0.652z m251.15 167.36H510.151v-44.556h222.57v44.557z" p-id="8151"></path></svg>