<?xml version="1.0" standalone="no"?><!DOCTYPE svg PUBLIC "-//W3C//DTD SVG 1.1//EN" "http://www.w3.org/Graphics/SVG/1.1/DTD/svg11.dtd"><svg t="1551432093567" class="icon" style="" viewBox="0 0 1024 1024" version="1.1" xmlns="http://www.w3.org/2000/svg" p-id="18964" xmlns:xlink="http://www.w3.org/1999/xlink" width="48" height="48"><defs><style type="text/css"></style></defs><path d="M512 56.889c-251.335 0-455.111 203.776-455.111 455.111s203.776 455.111 455.111 455.111 455.111-203.776 455.111-455.111-203.776-455.111-455.111-455.111zM533.049 686.763v52.793h-32.882v-52.338c-38.798-3.413-77.141-20.48-101.945-40.96l21.049-26.624c24.803 19.57 55.523 35.726 93.298 35.726 46.421 0 70.087-22.414 70.087-57.117 0-90.453-169.301-69.063-169.301-173.739 0-46.649 35.613-80.441 86.813-87.154v-52.907h32.882v52.338c38.229 3.413 63.033 19.456 84.082 39.481l-23.666 23.325c-22.073-19.57-40.391-30.493-74.411-30.493-37.774 0-62.578 21.845-62.578 53.362 0 80.896 169.301 57.117 169.301 172.829 0 50.517-36.181 84.765-92.729 91.477z" p-id="18965"></path></svg>