<?xml version="1.0" standalone="no"?><!DOCTYPE svg PUBLIC "-//W3C//DTD SVG 1.1//EN" "http://www.w3.org/Graphics/SVG/1.1/DTD/svg11.dtd"><svg t="1551440970957" class="icon" style="" viewBox="0 0 1027 1024" version="1.1" xmlns="http://www.w3.org/2000/svg" p-id="6957" xmlns:xlink="http://www.w3.org/1999/xlink" width="48.140625" height="48"><defs><style type="text/css"></style></defs><path d="M514.243954 3.314664c-281.152359 0-509.071239 227.91888-509.071239 509.068753 0 281.151116 227.91888 509.069996 509.071239 509.069996 281.149873 0 509.068753-227.91888 509.068753-509.069996C1023.312707 231.233544 795.393827 3.314664 514.243954 3.314664zM826.269792 756.035455c-6.232861 46.061028-41.836602 67.974847-106.807496 65.753885l-70.09141 0c-57.40819 2.002221-85.003048-25.147698-82.775872-81.439815L566.595014 529.738486c-18.023718 0.667407-44.282519 1.670382-78.770187 3.005196-16.245209 0.667407-28.261021 1.114831-36.047437 1.334814-1.559769 90.785999-17.689393 154.652005-48.396331 191.584346-28.03731 39.159517-88.783778 75.541279-182.239405 109.141557-7.567675-12.464479-15.687172-23.364218-24.364707-32.709159 89.668683-29.595836 147.412441-61.413875 173.227546-95.459091 28.704717-32.260492 43.61014-89.334358 44.724971-171.224082-16.468921 0.891119-39.276345 1.783481-68.423514 2.669628-33.826475 1.783481-57.300063 4.005685-70.425735 6.675313l-19.692857-38.050901c17.356311-7.786415 35.59877-19.467903 54.738562-35.045705 64.302244-52.511386 116.038096-102.576857 155.203828-150.197653l-258.673046 0 0-34.378298 303.064935 0c-8.010127-28.704717-16.912616-57.184479-26.701253-85.4455l35.38003-8.677534c10.456044 32.041752 20.24468 63.416097 29.372124 94.123034l277.698496 0 0 34.378298L482.484328 321.462749l27.36866 14.352358c-59.860321 60.079061-121.607278 116.601104-185.243358 169.556186 113.48281-3.113323 236.977967-7.009638 370.486717-11.681487-33.159068-31.81804-64.417828-60.746468-93.789952-86.780314l26.701253-22.69681c62.524978 54.963517 121.267982 109.033429 176.231499 162.212223l-30.039531 25.702006c-3.338278-3.338278-8.344452-8.345695-15.019765-15.021008-13.350626-13.569367-23.812884-24.031625-31.374345-31.374345-30.488197 0.448667-71.985503 1.561012-124.49689 3.338278l0 200.930531c-0.224955 22.69681 3.67136 37.935316 11.681487 45.727946 7.119008 8.228868 21.695079 12.234553 43.724482 12.015812l60.746468 0c43.833852 1.334814 67.756107-14.244231 71.760549-46.728435 4.005685-24.250365 6.784683-47.948907 8.344452-71.094385 8.896275 4.23064 21.027671 8.569407 36.380519 13.018787C833.721882 709.423847 830.492974 733.788554 826.269792 756.035455z" fill="" p-id="6958"></path></svg>