<?xml version="1.0" standalone="no"?><!DOCTYPE svg PUBLIC "-//W3C//DTD SVG 1.1//EN" "http://www.w3.org/Graphics/SVG/1.1/DTD/svg11.dtd"><svg t="1551450557611" class="icon" style="" viewBox="0 0 1024 1024" version="1.1" xmlns="http://www.w3.org/2000/svg" p-id="12025" xmlns:xlink="http://www.w3.org/1999/xlink" width="48" height="48"><defs><style type="text/css"></style></defs><path d="M64 0h896a64 64 0 0 1 64 64v896a64 64 0 0 1-64 64H64a64 64 0 0 1-64-64V64a64 64 0 0 1 64-64z m192 192l182.784 321.664H306.176v44.8h157.696v87.808H306.176v44.8h157.696v140.672H542.72v-140.672h158.592v-44.8H542.72V558.464h158.592v-44.8H567.808L750.592 192h-88.704L503.296 485.888 344.704 192H256z" p-id="12026"></path></svg>