<?xml version="1.0" standalone="no"?><!DOCTYPE svg PUBLIC "-//W3C//DTD SVG 1.1//EN" "http://www.w3.org/Graphics/SVG/1.1/DTD/svg11.dtd"><svg t="1551791930047" class="icon" style="" viewBox="0 0 1024 1024" version="1.1" xmlns="http://www.w3.org/2000/svg" p-id="9098" xmlns:xlink="http://www.w3.org/1999/xlink" width="48" height="48"><defs><style type="text/css"></style></defs><path d="M421.4784 670.0544l-120.576 120.3712a45.312 45.312 0 0 1-64 0 45.1072 45.1072 0 0 1 0-63.8976l123.904-123.6992-111.5136-0.512a45.2096 45.2096 0 1 1 0.4608-90.368l217.1904 1.024c24.8832 0.1536 45.056 20.3264 45.056 45.2096v215.808a45.2096 45.2096 0 0 1-90.5216 0v-103.936z m182.784-315.136l120.576-120.3712a45.312 45.312 0 0 1 64 0 45.1072 45.1072 0 0 1 0 63.8464l-123.904 123.6992 111.5136 0.512a45.2096 45.2096 0 1 1-0.4608 90.4192l-217.1904-1.0752a45.2096 45.2096 0 0 1-45.056-45.1584V250.9824a45.2096 45.2096 0 0 1 90.5216 0v103.936zM170.6496 0h682.7008A170.6496 170.6496 0 0 1 1024 170.6496v682.7008A170.6496 170.6496 0 0 1 853.3504 1024H170.6496A170.6496 170.6496 0 0 1 0 853.3504V170.6496A170.6496 170.6496 0 0 1 170.6496 0z m0 93.0816c-42.8032 0-77.568 34.7648-77.568 77.568v682.7008c0 42.8032 34.7648 77.568 77.568 77.568h682.7008c42.8032 0 77.568-34.7648 77.568-77.568V170.6496c0-42.8032-34.7648-77.568-77.568-77.568H170.6496z" p-id="9099"></path></svg>