<?xml version="1.0" standalone="no"?><!DOCTYPE svg PUBLIC "-//W3C//DTD SVG 1.1//EN" "http://www.w3.org/Graphics/SVG/1.1/DTD/svg11.dtd"><svg t="1551449893644" class="icon" style="" viewBox="0 0 1117 1024" version="1.1" xmlns="http://www.w3.org/2000/svg" p-id="5744" xmlns:xlink="http://www.w3.org/1999/xlink" width="52.359375" height="48"><defs><style type="text/css"></style></defs><path d="M1111.505 698.089c-3.63-19.456-16.104-32.024-32.116-32.024h-2.234a55.575 55.575 0 0 1-55.482-55.482c0-8.099 3.444-17.966 4.84-21.038a40.68 40.68 0 0 0-15.173-49.71L946.455 503.9a43.846 43.846 0 0 0-47.476 9.495c-8.099 8.285-29.603 25.507-44.404 25.507-14.895 0-36.585-17.594-44.684-26.065a43.753 43.753 0 0 0-47.29-9.868l-1.21 0.559-66.095 36.305-1.583 0.931a40.215 40.215 0 0 0-13.684 48.594 64.047 64.047 0 0 1 4.84 21.224 55.575 55.575 0 0 1-55.481 55.482h-2.607c-15.64 0-28.113 12.568-31.837 32.024-0.559 2.979-5.4 29.789-5.4 51.572s4.841 48.594 5.4 51.572c3.724 19.55 16.198 32.024 32.21 32.024h2.234c30.627 0 55.482 24.948 55.482 55.575a63.116 63.116 0 0 1-4.84 20.945 40.774 40.774 0 0 0 15.08 49.711l63.674 35.56a43.101 43.101 0 0 0 47.756-10.053c7.912-8.564 30.161-27.183 45.428-27.183 15.36 0 37.423 18.619 45.615 27.741a43.194 43.194 0 0 0 49.338 9.589l64.419-35.654 1.582-0.93a40.215 40.215 0 0 0 13.685-48.594 64.047 64.047 0 0 1-4.934-21.132c0-30.72 24.855-55.575 55.482-55.575h2.606c15.64 0 28.114-12.568 31.744-31.93 0.094-0.28 5.586-28.859 5.586-51.666 0-21.69-4.934-48.593-5.586-51.572z m-259.258 149.41a98.21 98.21 0 0 1 0-196.235 98.21 98.21 0 0 1 0 196.236zM687.85 462.104a335.779 335.779 0 0 0-98.863 508.556H94.766C42.73 970.659 0 938.543 0 886.225v-22.807c0-48.035 35.375-90.577 80.43-106.775l193.164-86.11s52.317-16.01 66.653-32.116c9.589-10.705 12.474-45.986 0.373-69.073-12.102-23.273-109.848-150.528-109.848-257.396C230.68 139.729 343.878 0 483.607 0c139.637 0 252.928 139.636 252.928 311.948 0 51.013-22.993 104.261-48.872 150.062z" p-id="5745"></path></svg>