<?xml version="1.0" standalone="no"?><!DOCTYPE svg PUBLIC "-//W3C//DTD SVG 1.1//EN" "http://www.w3.org/Graphics/SVG/1.1/DTD/svg11.dtd"><svg t="1551449847224" class="icon" style="" viewBox="0 0 1024 1024" version="1.1" xmlns="http://www.w3.org/2000/svg" p-id="4186" xmlns:xlink="http://www.w3.org/1999/xlink" width="128" height="128"><defs><style type="text/css"></style></defs><path d="M445.730754 694.861576c-36.864 222.021818 107.985455 302.855758 150.590061 302.855757l-136.223031-0.806788a1432.358788 1432.358788 0 0 1-71.431757-1.551515 2660.848485 2660.848485 0 0 1-84.123152-5.088969c-28.920242-2.327273-57.654303-4.964848-86.264242-7.943758a2109.936485 2109.936485 0 0 1-77.76194-9.433212 1039.422061 1039.422061 0 0 1-59.267878-9.929697c-16.228848-3.351273-26.437818-6.671515-30.72-9.991758-7.726545-5.275152-13.529212-21.721212-17.439031-49.245091-3.878788-27.492848-2.265212-62.805333 4.778667-105.937454 2.792727-16.570182 8.626424-30.161455 17.470061-40.773818 8.812606-10.612364 19.549091-19.735273 32.271515-27.368728a183.606303 183.606303 0 0 1 42.356363-18.400969c15.515152-4.654545 31.340606-9.091879 47.600485-13.436121 16.228848-4.282182 31.930182-8.936727 47.104-13.901576 15.142788-4.964848 29.075394-11.139879 41.766788-18.40097 14.832485-8.626424 26.282667-17.097697 34.412606-25.382788 8.098909-8.285091 13.901576-16.41503 17.43903-24.358788a60.819394 60.819394 0 0 0 5.306182-24.886303c0-8.626424-0.372364-18.214788-1.05503-28.858182-1.427394-15.204848-7.074909-27.306667-16.942546-36.305454a550.167273 550.167273 0 0 0-32.79903-27.306667 66.001455 66.001455 0 0 1-15.32897-19.424969 239.740121 239.740121 0 0 1-12.194909-25.382788 1497.212121 1497.212121 0 0 1-10.550303-30.844122 49.462303 49.462303 0 0 1-14.832485-6.950787 94.735515 94.735515 0 0 1-13.777454-13.901576c-4.902788-5.988848-9.153939-14.584242-12.691394-25.879273a82.416485 82.416485 0 0 1-4.220121-30.844121c0.713697-9.278061 2.823758-17.563152 6.330182-24.855273 2.823758-7.292121 7.416242-14.273939 13.777454-20.914424 0-25.196606 1.396364-50.393212 4.220121-75.589818 2.823758-21.224727 7.757576-44.094061 14.801455-68.639031a194.56 194.56 0 0 1 32.830061-65.660121 214.140121 214.140121 0 0 1 45.490424-45.242182A220.749576 220.749576 0 0 1 357.480572 16.911515a240.143515 240.143515 0 0 1 52.379152-13.436121A379.500606 379.500606 0 0 1 460.097784 0c20.48 0 40.742788 2.172121 60.850424 6.454303 20.107636 4.344242 38.974061 10.115879 56.630304 17.43903a264.502303 264.502303 0 0 1 47.072969 24.824243c13.746424 9.309091 24.513939 18.618182 32.271515 27.865212a204.955152 204.955152 0 0 1 40.215273 70.128485c8.471273 25.537939 14.491152 49.927758 17.997576 73.138424 3.537455 26.530909 5.275152 53.372121 5.275151 80.554667 4.964848 3.320242 8.843636 7.633455 11.667394 12.939636 2.792727 4.654545 5.12 10.612364 6.857697 17.935515 1.768727 7.261091 1.954909 16.228848 0.558546 26.841212-1.427394 14.584242-4.437333 26.034424-8.998788 34.288485a66.032485 66.032485 0 0 1-15.36 19.42497c-6.330182 5.275152-13.032727 8.936727-20.107637 10.922666-1.396364 3.971879-2.792727 8.285091-4.220121 12.908607l-5.275151 13.901575c-1.427394 4.654545-3.196121 9.588364-5.275152 14.894546-35.995152 13.932606-67.739152 33.885091-98.986666 55.575272-83.812848 58.243879-126.882909 122.538667-135.540364 174.824728z m499.370667-15.825455c12.288 28.237576 18.432 58.368 18.432 90.360243 0 31.961212-6.144 62.060606-18.432 90.360242a240.888242 240.888242 0 0 1-49.803637 74.131394 228.289939 228.289939 0 0 1-73.75903 49.772606 227.886545 227.886545 0 0 1-90.391273 18.090667 229.748364 229.748364 0 0 1-91.073939-18.090667 228.289939 228.289939 0 0 1-73.75903-49.772606 240.857212 240.857212 0 0 1-49.803637-74.162424 224.038788 224.038788 0 0 1-18.432-90.329212c0-31.961212 6.144-62.091636 18.432-90.391273a241.043394 241.043394 0 0 1 49.803637-74.131394 233.720242 233.720242 0 0 1 73.75903-50.14497 225.776485 225.776485 0 0 1 91.073939-18.432c31.961212 0 62.122667 6.11297 90.391273 18.432a233.720242 233.720242 0 0 1 73.75903 50.14497 241.105455 241.105455 0 0 1 49.803637 74.162424z m-203.620849 250.81794l153.724121-261.026909h-68.328727l-85.395394 154.779151-68.297697-154.779151h-68.328727l133.430303 247.156363 3.196121 13.870546z" p-id="4187"></path></svg>