<?xml version="1.0" standalone="no"?><!DOCTYPE svg PUBLIC "-//W3C//DTD SVG 1.1//EN" "http://www.w3.org/Graphics/SVG/1.1/DTD/svg11.dtd"><svg t="1551450019548" class="icon" style="" viewBox="0 0 1024 1024" version="1.1" xmlns="http://www.w3.org/2000/svg" p-id="7623" xmlns:xlink="http://www.w3.org/1999/xlink" width="48" height="48"><defs><style type="text/css"></style></defs><path d="M591.718111 707.255009 732.894458 848.39554l74.995041 100.518345 39.808658 10.782577L958.349279 848.39554l-10.728342-40.712237-99.812263-74.27361-148.83477-148.870586L593.596901 689.914062C593.451592 695.804213 592.765977 701.584869 591.718111 707.255009zM837.042469 790.016945c25.88453 0 46.854121 20.971637 46.854121 46.836725 0 25.866111-20.969591 46.836725-46.854121 46.836725-25.828248 0-46.818305-20.969591-46.818305-46.836725C790.224164 810.988582 811.213197 790.016945 837.042469 790.016945z" p-id="7624"></path><path d="M531.137361 416.684144l-82.690304-82.690304c10.620895-20.826328 16.996093-41.761126 16.978696-60.978816 0-106.152668-101.493555-208.856795-207.610408-207.609385-0.397043 0-12.390191 12.173251-18.910699 18.694781 85.038792 85.038792 78.010725 71.238484 78.010725 123.385145 0 42.319851-67.806315 109.151979-109.169375 109.151979-53.55473 0-36.485983 8.887414-123.366725-78.029144-6.755868 6.755868-18.7132 18.567891-18.730597 18.965957 1.282203 106.135272 101.510952 207.609385 207.627804 207.609385 19.200294 0 39.755446-6.14086 60.039421-16.328897l75.140351 75.140351c5.653767-1.046842 11.397584-1.7519 17.268292-1.89721L531.137361 416.684144z" p-id="7625"></path><path d="M869.518115 597.614913l56.591903 55.090712c0 0 81.514525-225.960335-15.282055-322.775334-34.985816-34.968419-86.681198-86.663802-127.321804-127.321804-8.798387-8.79634-33.452903-0.849344-39.810704-9.301853-17.809621-23.626094-24.347524-43.855834-25.756617-48.768727-3.883447-18.640546-23.697725-36.84721-39.701211-52.886511l-5.959735-5.960759c-13.33061-13.33061-20.230764-21.386076-28.358885-21.386076-6.773264 0-14.414291 5.635347-27.347858 18.567891l-77.469396 77.487815c-28.41312 28.412097-21.657252 31.211862 2.818185 55.66888l5.978155 5.978155c17.828041 17.845437 38.384216 40.406269 59.20952 40.406269 0.251733 0 0.505513 0 0.757247 0 16.003486 2.998287 49.112558 12.372795 64.319911 40.315194 16.726963 37.046754-6.91755 62.513776-16.383132 76.729545L448.084807 587.140351c-6.664793-2.096754-13.257955-3.252067-19.615757-3.252067-11.234879 0-21.638833 3.64911-30.091342 12.101619-1.571798 1.570775-3.847631 3.829212-6.611581 6.611581 0 0-171.087587 171.07019-215.448934 215.44791-2.799766 2.78237-5.057179 5.058203-6.647397 6.630001-42.193984 42.211381 34.896788 133.427872 91.125417 133.427872 11.289114 0 21.728884-3.647063 30.182416-12.137435 1.590218-1.570775 3.865028-3.829212 6.647397-6.611581 44.505633-44.505633 215.448934-215.44791 215.448934-215.44791 2.76395-2.78237 5.022387-5.040806 6.611581-6.611581 13.202697-13.221116 14.666024-31.248701 8.813736-49.762357L761.289158 434.764941c14.521738-12.155854 28.954449-23.373337 37.19104-23.373337 1.226944 0 2.328022 0.252757 3.267417 0.795109C885.992321 460.558397 869.518115 597.614913 869.518115 597.614913z" p-id="7626"></path></svg>