<?xml version="1.0" standalone="no"?><!DOCTYPE svg PUBLIC "-//W3C//DTD SVG 1.1//EN" "http://www.w3.org/Graphics/SVG/1.1/DTD/svg11.dtd"><svg t="1551439925535" class="icon" style="" viewBox="0 0 1027 1024" version="1.1" xmlns="http://www.w3.org/2000/svg" p-id="6227" xmlns:xlink="http://www.w3.org/1999/xlink" width="48.140625" height="48"><defs><style type="text/css"></style></defs><path d="M513.626261 3.314664c-281.152359 0-509.071239 227.91888-509.071239 509.068753 0 281.152359 227.91888 509.071239 509.071239 509.071239 281.149873 0 509.068753-227.91888 509.068753-509.071239C1022.695014 231.232301 794.776134 3.314664 513.626261 3.314664zM444.818709 225.005655l326.094828 0 0 231.637468L444.818709 456.643123 444.818709 225.005655zM256.237072 826.462433c-10.461015 0.886148-26.14943 1.334814-47.061517 1.334814-2.450888-17.581266-4.787434-30.039531-7.009638-37.382251 5.115544 0.21874 11.01408 0.441209 17.689393 0.667407 3.338278 0 7.228379 0 11.681487 0 3.78073 0 10.013591 0 18.691125 0 22.915551 1.553555 33.820261-11.68273 32.709159-39.72004L282.937082 548.429611c-30.706938 14.467943-60.86081 29.262753-90.451674 44.393132l-6.007906-38.385226c35.59877-14.68544 67.756107-28.589132 96.45958-41.719775l0-145.524561-86.780314 0 0-32.041752 86.780314 0L282.937082 193.63131l35.38003 0 0 141.518876 74.097095 0 0 32.041752-74.097095 0 0 129.169982c31.593085-15.35409 55.072887-26.921236 70.425735-34.712623 0 1.116074 0.10937 3.003953 0.334325 5.673581 0.886148 13.350626 2.002221 23.478559 3.338278 30.372613-30.264485 13.799293-54.963517 25.257068-74.097095 34.379541l0 219.286088C320.989226 800.760426 300.295879 825.795025 256.237072 826.462433zM827.65432 810.774017c-52.292646 0-91.119081-0.114342-116.486763-0.333082-29.82079-0.226198-57.075108-0.784234-81.77414-1.670382-82.332177 0-139.516655-34.377055-171.558407-103.133651-16.468921 46.502237-44.282519 89.334358-83.443279 128.501332-11.129665-10.23606-20.918301-17.804978-29.372124-22.69681 61.188921-55.405969 95.568461-130.170471 103.134893-224.294748l35.045705 5.007417c-3.338278 25.366439-7.457062 48.395088-12.350137 69.089678 29.372124 68.756596 70.868187 105.58081 124.49689 110.480099L595.346958 553.77011 384.739647 553.77011 384.739647 523.063173l445.585543 0 0 30.706938L630.729474 553.77011l0 87.447721 173.560628 0 0 30.039531L630.729474 671.257362l0 104.136625c4.005685 0.443695 9.679266 0.667407 17.021986 0.667407 21.804449 0.667407 50.06547 1.002975 84.778093 1.002975 36.266177 0.21874 71.644964 0.10937 106.138847-0.335568C832.880477 791.85918 829.207874 803.207585 827.65432 810.774017z" fill="" p-id="6228"></path><path d="M480.531821 255.712592l255.001686 0 0 69.758328-255.001686 0 0-69.758328Z" fill="" p-id="6229"></path><path d="M480.531821 355.510451l255.001686 0 0 70.425735-255.001686 0 0-70.425735Z" fill="" p-id="6230"></path></svg>