<?xml version="1.0" standalone="no"?><!DOCTYPE svg PUBLIC "-//W3C//DTD SVG 1.1//EN" "http://www.w3.org/Graphics/SVG/1.1/DTD/svg11.dtd"><svg t="1551449781762" class="icon" style="" viewBox="0 0 1024 1024" version="1.1" xmlns="http://www.w3.org/2000/svg" p-id="2687" xmlns:xlink="http://www.w3.org/1999/xlink" width="48" height="48"><defs><style type="text/css"></style></defs><path d="M924.544 401.408a449.408 449.408 0 0 0-95.488-143.04 447.488 447.488 0 0 0-143.04-95.424A439.808 439.808 0 0 0 512 127.488a440.32 440.32 0 0 0-174.016 35.456 451.072 451.072 0 0 0-143.04 95.424 448.384 448.384 0 0 0-95.36 143.04A438.464 438.464 0 0 0 64 575.488c0 62.016 12.032 120.704 36.032 176a448.96 448.96 0 0 0 100.032 145.024h623.936a448.32 448.32 0 0 0 100.032-145.024A437.568 437.568 0 0 0 960 575.488a439.68 439.68 0 0 0-35.456-174.08zM489.088 223.424h45.952v82.048h-45.952V223.424z m-247.04 334.08l-80.96-14.912 8-44.992 81.024 14.912-8.064 44.992z m78.016-174.016l-52.992-63.04 35.008-28.928 52.928 62.976-34.944 28.992z m259.456 277.504a68.544 68.544 0 0 1-30.528 43.008c-16 10.304-33.344 13.312-52.032 9.024a65.984 65.984 0 0 1-42.944-30.528 66.56 66.56 0 0 1-1.024-70.912L376 423.488l137.984 153.984c24.704 0.704 43.712 11.392 57.024 31.936 9.984 16 12.864 33.216 8.512 51.584z m124.544-277.504l-35.072-28.992 53.056-62.976 34.944 28.928-52.928 63.04z m77.952 174.016l-7.936-44.992 80.96-15.04 8 44.992-81.024 15.04z" p-id="2688"></path></svg>